<svg width="621" height="291" viewBox="0 0 621 291" fill="none" xmlns="http://www.w3.org/2000/svg">
<path fill-rule="evenodd" clip-rule="evenodd" d="M145.404 0C225.709 0 290.808 65.0996 290.808 145.404C290.808 225.709 225.709 290.808 145.404 290.808C65.0996 290.808 0 225.709 0 145.404C0 65.0996 65.0996 0 145.404 0ZM183.27 28.7779C142.281 28.7779 109.053 62.0058 109.053 102.995C109.053 143.983 142.281 177.211 183.27 177.211C224.259 177.211 257.486 143.983 257.486 102.995C257.486 62.0058 224.259 28.7779 183.27 28.7779Z" fill="#F944A5"/>
<path fill-rule="evenodd" clip-rule="evenodd" d="M475.599 0C555.904 0 621.004 65.0996 621.004 145.404C621.004 225.709 555.904 290.808 475.599 290.808C395.295 290.808 330.195 225.709 330.195 145.404C330.195 65.0996 395.295 0 475.599 0ZM513.465 28.7779C472.476 28.7779 439.248 62.0058 439.248 102.995C439.248 143.983 472.476 177.211 513.465 177.211C554.454 177.211 587.682 143.983 587.682 102.995C587.682 62.0058 554.454 28.7779 513.465 28.7779Z" fill="#F944A5"/>
</svg>
